<?xml version="1.0" encoding="utf-8"?>
<svg xmlns="http://www.w3.org/2000/svg" viewBox="-316.462 -393.36 858.459 908.739" xmlns:bx="https://boxy-svg.com" width="858.459px" height="908.739px"><defs><linearGradient id="gradient-1" x1="453.88" y1="645.56" x2="494.68" y2="645.56" gradientUnits="userSpaceOnUse" gradientTransform="matrix(1, 0, 0, 1, -186.039307, -327.502625)"><stop offset="0" stop-color="#252364"/><stop offset="0.11" stop-color="#2a2264"/><stop offset="0.25" stop-color="#391f64"/><stop offset="0.4" stop-color="#511b65"/><stop offset="0.55" stop-color="#741665"/><stop offset="0.72" stop-color="#a00f66"/><stop offset="0.88" stop-color="#d50668"/><stop offset="1" stop-color="#ff0069"/></linearGradient><linearGradient id="gradient-2" x1="370.18" y1="709.95" x2="457.58" y2="709.95" gradientUnits="userSpaceOnUse" gradientTransform="matrix(1, 0, 0, 1, -186.039307, -327.502625)"><stop offset="0" stop-color="#74226e"/><stop offset="0" stop-color="#73226d"/><stop offset="0.28" stop-color="#512269"/><stop offset="0.55" stop-color="#392266"/><stop offset="0.8" stop-color="#2a2264"/><stop offset="1" stop-color="#252364"/></linearGradient><linearGradient id="gradient-3" x1="88.53" y1="277.31" x2="88.53" y2="429.7" gradientUnits="userSpaceOnUse" gradientTransform="matrix(1, 0, 0, 1, -186.039307, -327.502625)"><stop offset="0" stop-color="#ffc90f"/><stop offset="1" stop-color="#b7005f"/></linearGradient><linearGradient id="gradient-4" x1="129.99" y1="104.55" x2="184" y2="104.55" gradientUnits="userSpaceOnUse" gradientTransform="matrix(1, 0, 0, 1, -186.039307, -327.502625)"><stop offset="0" stop-color="#f9ff00"/><stop offset="1" stop-color="#ff5700"/></linearGradient><linearGradient id="gradient-5" x1="129.63" y1="184.79" x2="129.63" y2="429.7" gradientUnits="userSpaceOnUse" gradientTransform="matrix(1, 0, 0, 1, -186.039307, -327.502625)"><stop offset="0" stop-color="#c70033"/><stop offset="0.34" stop-color="#820048"/><stop offset="1" stop-color="#14004b"/></linearGradient><linearGradient id="linear-gradient-4-1" x1="252.73" y1="51.08" x2="446.16" y2="51.08" gradientTransform="matrix(1, 0, 0, 1, -359.306946, -637.167053)" href="#gradient-4"/><linearGradient id="gradient-6" x1="219.16" y1="137.02" x2="302.18" y2="137.02" gradientUnits="userSpaceOnUse" gradientTransform="matrix(1, 0, 0, 1, -186.039307, -327.502625)"><stop offset="0" stop-color="#b7005f"/><stop offset="1" stop-color="#ffc90f"/></linearGradient><linearGradient id="gradient-7" x1="142.86" y1="285.28" x2="142.86" y2="429.7" gradientUnits="userSpaceOnUse" gradientTransform="matrix(1, 0, 0, 1, -186.039307, -327.502625)"><stop offset="0" stop-color="#74226e"/><stop offset="1" stop-color="#252364"/></linearGradient><linearGradient id="gradient-8" x1="172.89" y1="179.14" x2="392.84" y2="179.14" gradientUnits="userSpaceOnUse" gradientTransform="matrix(1, 0, 0, 1, -186.039307, -327.502625)"><stop offset="0" stop-color="#27004b"/><stop offset="1" stop-color="#ff002a"/></linearGradient><linearGradient id="linear-gradient-7-1" x1="148.08" y1="337.59" x2="186.43" y2="337.59" gradientTransform="matrix(1, 0, 0, 1, -359.306946, -637.167053)" href="#gradient-6"/><linearGradient id="linear-gradient-7-2" x1="179.07" y1="228.72" x2="327.06" y2="228.72" gradientTransform="matrix(1, 0, 0, 1, -359.306946, -637.167053)" href="#gradient-6"/><linearGradient id="linear-gradient-9-1" x1="309.11" y1="146.8" x2="381.41" y2="146.8" gradientTransform="matrix(1, 0, 0, 1, -359.306946, -637.167053)" href="#gradient-8"/><linearGradient id="linear-gradient-9-2" x1="284.3" y1="186.49" x2="353.92" y2="186.49" gradientTransform="matrix(1, 0, 0, 1, -359.306946, -637.167053)" href="#gradient-8"/><linearGradient id="linear-gradient-7-3" x1="182.2" y1="286.17" x2="271.6" y2="286.17" gradientTransform="matrix(1, 0, 0, 1, -359.306946, -637.167053)" href="#gradient-6"/><linearGradient id="gradient-9" x1="288.94" y1="186.52" x2="428.34" y2="186.52" gradientUnits="userSpaceOnUse" gradientTransform="matrix(1, 0, 0, 1, -186.039307, -327.502625)"><stop offset="0" stop-color="#5c004d"/><stop offset="1" stop-color="#492163"/></linearGradient><linearGradient id="linear-gradient-4-2" x1="469.09" y1="124.31" x2="664.67" y2="124.31" gradientTransform="matrix(1, 0, 0, 1, -359.306946, -637.167053)" href="#gradient-4"/><linearGradient id="gradient-10" x1="529.67" y1="127.75" x2="664.67" y2="127.75" gradientUnits="userSpaceOnUse" gradientTransform="matrix(1, 0, 0, 1, -186.039307, -327.502625)"><stop offset="0" stop-color="#ffc800"/><stop offset="1" stop-color="#ff002a"/></linearGradient><linearGradient id="gradient-11" x1="148.08" y1="320.26" x2="251.22" y2="320.26" gradientUnits="userSpaceOnUse" gradientTransform="matrix(1, 0, 0, 1, -186.039307, -327.502625)"><stop offset="0" stop-color="#14004b"/><stop offset="0.66" stop-color="#820048"/><stop offset="1" stop-color="#c70033"/></linearGradient><linearGradient id="gradient-12" x1="248.9" y1="236.06" x2="322.56" y2="236.06" gradientUnits="userSpaceOnUse" gradientTransform="matrix(1, 0, 0, 1, -186.039307, -327.502625)"><stop offset="0" stop-color="#74226e"/><stop offset="1" stop-color="#492163"/></linearGradient><linearGradient id="gradient-13" x1="227.35" y1="251.47" x2="436.64" y2="251.47" gradientUnits="userSpaceOnUse" gradientTransform="matrix(1, 0, 0, 1, -186.039307, -327.502625)"><stop offset="0" stop-color="#ff002a"/><stop offset="1" stop-color="#ffc800"/></linearGradient><linearGradient id="linear-gradient-9-3" x1="368.35" y1="198.26" x2="477.82" y2="198.26" gradientTransform="matrix(1, 0, 0, 1, -359.306946, -637.167053)" href="#gradient-8"/><linearGradient id="linear-gradient-15-1" x1="243.77" y1="262.19" x2="483.42" y2="262.19" gradientTransform="matrix(1, 0, 0, 1, -359.306946, -637.167053)" href="#gradient-9"/><linearGradient id="linear-gradient-8-1" x1="242.75" y1="292.42" x2="471.85" y2="292.42" gradientTransform="matrix(1, 0, 0, 1, -359.306946, -637.167053)" href="#gradient-7"/><linearGradient id="gradient-14" x1="285.73" y1="346.64" x2="467.04" y2="346.64" gradientUnits="userSpaceOnUse" gradientTransform="matrix(1, 0, 0, 1, -186.039307, -327.502625)"><stop offset="0" stop-color="#de006b"/><stop offset="0.03" stop-color="#d5016a"/><stop offset="0.21" stop-color="#a00b68"/><stop offset="0.39" stop-color="#741466"/><stop offset="0.57" stop-color="#511a65"/><stop offset="0.73" stop-color="#391f64"/><stop offset="0.88" stop-color="#2a2264"/><stop offset="1" stop-color="#252364"/></linearGradient><linearGradient id="linear-gradient-2-1" x1="322.56" y1="317.54" x2="483.42" y2="317.54" gradientTransform="matrix(1, 0, 0, 1, -359.306946, -637.167053)" href="#gradient-2"/><linearGradient id="gradient-15" x1="421.71" y1="299.71" x2="491.72" y2="299.71" gradientUnits="userSpaceOnUse" gradientTransform="matrix(1, 0, 0, 1, -186.039307, -327.502625)"><stop offset="0" stop-color="#252364"/><stop offset="1" stop-color="#74226e"/></linearGradient><linearGradient id="gradient-16" x1="340.56" y1="397.62" x2="470.13" y2="397.62" gradientUnits="userSpaceOnUse" gradientTransform="matrix(1, 0, 0, 1, -186.039307, -327.502625)"><stop offset="0" stop-color="#252364"/><stop offset="0.2" stop-color="#2a2264"/><stop offset="0.45" stop-color="#392266"/><stop offset="0.72" stop-color="#512269"/><stop offset="1" stop-color="#73226d"/><stop offset="1" stop-color="#74226e"/></linearGradient><linearGradient id="linear-gradient-17-1" x1="524.79" y1="189.87" x2="712.24" y2="189.87" gradientTransform="matrix(1, 0, 0, 1, -359.306946, -637.167053)" href="#gradient-10"/><linearGradient id="linear-gradient-4-3" x1="611.56" y1="225.84" x2="752.5" y2="225.84" gradientTransform="matrix(1, 0, 0, 1, -359.306946, -637.167053)" href="#gradient-4"/><linearGradient id="linear-gradient-17-2" x1="560.71" y1="343.4" x2="782.03" y2="343.4" gradientTransform="matrix(1, 0, 0, 1, -359.306946, -637.167053)" href="#gradient-10"/><linearGradient id="linear-gradient-20-1" x1="694.63" y1="305.02" x2="777.49" y2="305.02" gradientTransform="matrix(1, 0, 0, 1, -359.306946, -637.167053)" href="#gradient-13"/><linearGradient id="linear-gradient-27-1" x1="465.78" y1="287.05" x2="579.96" y2="287.05" gradientTransform="matrix(1, 0, 0, 1, -359.306946, -637.167053)" href="#gradient-16"/><linearGradient id="linear-gradient-26-1" x1="560.71" y1="327.92" x2="706.35" y2="327.92" gradientTransform="matrix(1, 0, 0, 1, -359.306946, -637.167053)" href="#gradient-15"/><linearGradient id="linear-gradient-27-2" x1="349.83" y1="355.37" x2="467.04" y2="355.37" gradientTransform="matrix(1, 0, 0, 1, -359.306946, -637.167053)" href="#gradient-16"/><linearGradient id="linear-gradient-24-1" x1="384.11" y1="418.63" x2="606.25" y2="418.63" gradientTransform="matrix(1, 0, 0, 1, -359.306946, -637.167053)" href="#gradient-14"/><linearGradient id="linear-gradient-3-1" x1="384.11" y1="360.39" x2="567.9" y2="360.39" gradientTransform="matrix(1, 0, 0, 1, -359.306946, -637.167053)" href="#gradient-3"/><linearGradient id="gradient-17" x1="477.16" y1="338.95" x2="506.75" y2="338.95" gradientUnits="userSpaceOnUse" gradientTransform="matrix(1, 0, 0, 1, -186.039307, -327.502625)"><stop offset="0" stop-color="#ff002a"/><stop offset="0.82" stop-color="#55216e"/></linearGradient><linearGradient id="linear-gradient-3-2" x1="468.65" y1="257.13" x2="611.54" y2="400.03" gradientTransform="matrix(1, 0, 0, 1, -359.306946, -637.167053)" href="#gradient-3"/><linearGradient id="linear-gradient-17-3" x1="568.78" y1="472.22" x2="660.84" y2="472.22" gradientTransform="matrix(1, 0, 0, 1, -359.306946, -637.167053)" href="#gradient-10"/><linearGradient id="linear-gradient-1" x1="537.28" y1="487.71" x2="606.25" y2="487.71" gradientTransform="matrix(1, 0, 0, 1, -359.306946, -637.167053)" href="#gradient-1"/><linearGradient id="linear-gradient-17-4" x1="532.79" y1="535.95" x2="532.79" y2="687.71" gradientTransform="matrix(1, 0, 0, 1, -359.306946, -637.167053)" href="#gradient-10"/><linearGradient id="gradient-18" x1="696.07" y1="456.55" x2="768.7" y2="456.55" gradientUnits="userSpaceOnUse" gradientTransform="matrix(1, 0, 0, 1, -186.039307, -327.502625)"><stop offset="0" stop-color="#ff0069"/><stop offset="0.12" stop-color="#d50668"/><stop offset="0.28" stop-color="#a00f66"/><stop offset="0.45" stop-color="#741665"/><stop offset="0.6" stop-color="#511b65"/><stop offset="0.75" stop-color="#391f64"/><stop offset="0.89" stop-color="#2a2264"/><stop offset="1" stop-color="#252364"/></linearGradient><linearGradient id="linear-gradient-17-5" x1="470.13" y1="517.46" x2="516.04" y2="517.46" gradientTransform="matrix(1, 0, 0, 1, -359.306946, -637.167053)" href="#gradient-10"/><linearGradient id="linear-gradient-2-2" x1="533.29" y1="556.06" x2="580.7" y2="556.06" gradientTransform="matrix(1, 0, 0, 1, -359.306946, -637.167053)" href="#gradient-2"/><linearGradient id="linear-gradient-17-6" x1="470.13" y1="470.59" x2="567.9" y2="470.59" gradientTransform="matrix(1, 0, 0, 1, -359.306946, -637.167053)" href="#gradient-10"/><linearGradient id="gradient-19" x1="421.07" y1="409.3" x2="493.09" y2="409.3" gradientUnits="userSpaceOnUse" gradientTransform="matrix(1, 0, 0, 1, -186.039307, -327.502625)"><stop offset="0" stop-color="#80004a"/><stop offset="1" stop-color="#c70033"/></linearGradient><linearGradient id="linear-gradient-55" x1="522.86" y1="681.07" x2="570.34" y2="598.84" gradientTransform="matrix(1, 0, 0, 1, -359.306946, -637.167053)" href="#gradient-1"/><linearGradient id="linear-gradient-46-1" x1="460.84" y1="484.57" x2="533.29" y2="484.57" gradientTransform="matrix(1, 0, 0, 1, -359.306946, -637.167053)" href="#gradient-19"/><linearGradient id="linear-gradient-46-2" x1="644.87" y1="495.93" x2="687.73" y2="495.93" gradientTransform="matrix(1.00229, 0, 0, 1, -361.180359, -637.167053)" href="#gradient-19"/><linearGradient id="linear-gradient-42-1" x1="660.84" y1="559.58" x2="714.61" y2="559.58" gradientTransform="matrix(1, 0, 0, 1, -359.306946, -637.167053)" href="#gradient-18"/><linearGradient id="linear-gradient-3-3" x1="421.07" y1="405.95" x2="542.37" y2="405.95" gradientTransform="matrix(1, 0, 0, 1, -359.306946, -637.167053)" href="#gradient-3"/><linearGradient id="linear-gradient-8-2" x1="106.82" y1="213.51" x2="106.82" gradientTransform="matrix(1, 0, 0, 1, -359.306946, -637.167053)" href="#gradient-7"/><linearGradient id="linear-gradient-18-1" x1="207.15" y1="327.17" x2="322.56" y2="327.17" gradientTransform="matrix(1, 0, 0, 1, -359.306946, -637.167053)" href="#gradient-11"/><linearGradient id="gradient-20" x1="321.47" y1="261.32" x2="443.7" y2="261.32" gradientUnits="userSpaceOnUse" gradientTransform="matrix(1, 0, 0, 1, -186.039307, -327.502625)"><stop offset="0" stop-color="#ffc90f"/><stop offset="1" stop-color="#da5e00"/></linearGradient></defs><path id="Wordmark" class="st0" d="M -249.03 -391.98 L -249.03 486.342 L -121.59 486.342 L -121.59 -94.11 L 540.651 513.889 L 540.651 331.784 L -249.03 -391.98 Z" style="fill: rgb(0, 90, 255); stroke-width: 1px;"/><g transform="matrix(1, 0, 0, 1, -127.58519, 12.479832)"><polygon class="cls-81" points="189.316 -225.332 220.637 -188.112 202.116 -51.922 191.686 -119.312 189.316 -225.332" style="fill: rgb(255, 217, 153); stroke-width: 0px;"/><polygon class="cls-87" points="21.11 14.888 -38.89 65.888 92.11 14.888 21.11 14.888" style="fill: rgb(234, 240, 249); stroke-width: 0px;"/><polygon class="cls-65" points="23.67 68.278 92.11 14.888 -38.89 65.888 23.67 68.278" style="fill: rgb(176, 210, 255); stroke-width: 0px;"/><polygon class="cls-66" points="92.11 14.888 162.42 29.518 -11.12 89.678 92.11 14.888" style="fill: rgb(132, 183, 255); stroke-width: 0px;"/><polygon class="cls-87" points="-38.89 65.888 -79.4 102.198 -35.35 107.918 23.67 68.278 -38.89 65.888" style="fill: rgb(234, 240, 249); stroke-width: 0px;"/><polygon class="cls-66" points="-79.4 102.198 -85.56 147.998 -35.35 107.918 -79.4 102.198" style="fill: rgb(132, 183, 255); stroke-width: 0px;"/><polygon class="cls-65" points="-155.16 178.838 -155.16 201.298 -85.56 147.998 -79.4 102.198 -155.16 178.838" style="fill: rgb(176, 210, 255); stroke-width: 0px;"/><polygon class="cls-66" points="-155.16 201.298 -173.66 191.168 -155.16 178.838 -155.16 201.298" style="fill: rgb(132, 183, 255); stroke-width: 0px;"/><polygon class="cls-67" points="-181.15 198.218 -155.16 201.298 -173.66 191.168 -181.15 198.218" style="fill: rgb(102, 113, 130); stroke-width: 0px;"/><path class="cls-62" d="M -185.99 231.248 L -185.99 220.678 C -185.99 211.388 -181.14 198.218 -181.14 198.218 L -155.15 201.298 L -185.99 231.248 Z" style="fill: rgb(36, 45, 57); stroke-width: 0px;"/><path class="cls-61" d="M -185.99 231.248 C -184.52 234.998 -181.14 235.208 -181.14 235.208 L -82.91 171.338 L -85.55 147.998 L -155.14 201.298 C -155.14 201.298 -187.46 227.498 -185.99 231.248 Z" style="fill: rgb(8, 43, 94); stroke-width: 0px;"/><polygon class="cls-62" points="-35.35 107.918 -10.24 122.458 -82.92 171.348 -85.56 147.998 -35.35 107.918" style="fill: rgb(36, 45, 57); stroke-width: 0px;"/><polygon class="cls-95" points="-35.35 107.918 32.09 107.918 -10.24 122.458 -35.35 107.918" style="fill: rgb(0, 12, 38); stroke-width: 0px;"/><polygon class="cls-67" points="110.62 51.218 194.02 75.308 44.77 99.018 110.62 51.218" style="fill: rgb(102, 113, 130); stroke-width: 0px;"/><polygon class="cls-95" points="162.42 29.518 224.74 91.208 110.62 51.218 162.42 29.518" style="fill: rgb(0, 12, 38); stroke-width: 0px;"/><polygon class="cls-63" points="44.77 99.018 32.09 107.918 -35.35 107.918 23.67 68.278 158.078 31.061 44.77 99.018" style="fill: rgb(211, 226, 255); stroke-width: 0px;"/><polygon class="cls-62" points="44.77 99.018 32.09 107.918 224.74 91.208 183.94 76.908 44.77 99.018" style="fill: rgb(36, 45, 57); stroke-width: 0px;"/><path class="cls-95" d="M -181.15 235.218 C -181.15 235.218 -156.29 241.428 -149.83 238.018 C -143.37 234.608 -125.44 214.738 -125.44 214.738 L -143.37 210.658 L -181.14 235.218 L -181.15 235.218 Z" style="fill: rgb(0, 12, 38); stroke-width: 0px;"/><polygon class="cls-59" points="-18.63 144.368 32.09 107.918 -10.24 122.458 -143.37 210.658 -125.44 214.738 -18.63 144.368" style="fill: rgb(7, 24, 53); stroke-width: 0px;"/><path class="cls-95" d="M 125.89 99.788 L 209.14 196.238 L 149.64 129.258 L 152.57 176.568 L 137.95 217.818 L 122.49 163.228 C 122.49 163.228 117.79 152.818 106.08 141.518 C 98.59 134.288 79.45 128.868 72.75 127.498 C 66.05 126.128 53.29 125.278 40.61 127.328 C 27.93 129.378 -18.62 144.378 -18.62 144.378 L 32.1 107.928 L 125.89 99.798 L 125.89 99.788 Z" style="fill: rgb(0, 12, 38); stroke-width: 0px;"/><polygon class="cls-91" points="113.84 224.338 137.94 217.808 122.48 163.218 113.84 224.338" style="fill: rgb(0, 203, 255); stroke-width: 0px;"/><polygon class="cls-92" points="141.03 260.448 113.84 224.338 137.94 217.808 141.03 260.448" style="fill: rgb(0, 220, 255); stroke-width: 0px;"/><polygon class="cls-97" points="84.86 312.808 141.03 260.448 113.84 224.338 84.86 312.808" style="fill: rgb(0, 122, 255); stroke-width: 0px;"/><polygon class="cls-70" points="43.17 304.578 113.84 224.338 84.86 312.808 43.17 304.578" style="fill: rgb(106, 231, 255); stroke-width: 0px;"/><polygon class="cls-71" points="56.3 338.538 -14.2 319.248 43.17 304.578 84.86 312.808 56.3 338.538" style="fill: rgb(159, 238, 247); stroke-width: 0px;"/><polygon class="cls-91" points="141.03 260.448 146.09 315.388 56.3 338.538 141.03 260.448" style="fill: rgb(0, 203, 255); stroke-width: 0px;"/><polygon class="cls-91" points="95.66 362.208 56.3 338.538 146.09 315.388 96.124 362.399" style="fill: rgb(0, 203, 255); stroke-width: 0px;"/><polygon class="cls-70" points="80.08 377.498 -11.12 362.208 56.3 338.538 96.166 362.398 80.08 377.498" style="fill: rgb(106, 231, 255); stroke-width: 0px;"/><polygon class="cls-97" points="182.11 343.168 146.09 315.388 80.08 377.498 182.11 343.168" style="fill: rgb(0, 122, 255); stroke-width: 0px;"/><polygon class="cls-70" points="104.15 426.018 44.46 400.288 80.702 377.292 182.11 343.168 104.15 426.018" style="fill: rgb(106, 231, 255); stroke-width: 0px;"/><polygon class="cls-90" points="217.4 272.478 243.91 155.488 224.74 91.208 203.22 224.338 217.4 272.478" style="fill: rgb(0, 49, 116); stroke-width: 0px;"/><polygon class="cls-62" points="152.56 176.558 204.59 215.848 209.13 196.238 149.63 129.248 152.56 176.558" style="fill: rgb(36, 45, 57); stroke-width: 0px;"/><polygon class="cls-60" points="137.94 213.978 204.59 215.848 152.56 176.558 137.94 213.978" style="fill: rgb(10, 24, 37); stroke-width: 0px;"/><polygon class="cls-90" points="204.11 221.978 204.11 218.778 204.59 215.848 137.94 213.978 141.03 260.448 204.11 221.978" style="fill: rgb(0, 49, 116); stroke-width: 0px;"/><polygon class="cls-97" points="146.09 315.388 204.11 221.978 141.03 260.448 146.09 315.388" style="fill: rgb(0, 122, 255); stroke-width: 0px;"/><polygon class="cls-94" points="217.4 272.478 204.11 221.978 146.09 315.388 217.4 272.478" style="fill: rgb(0, 92, 255); stroke-width: 0px;"/><polygon class="cls-93" points="182.11 343.168 146.09 315.388 217.4 272.478 182.11 343.168" style="fill: rgb(0, 69, 178); stroke-width: 0px;"/><polygon class="cls-93" points="262.46 206.208 217.4 272.478 243.91 155.488 262.46 206.208" style="fill: rgb(0, 69, 178); stroke-width: 0px;"/><polygon class="cls-58" points="206.8 397.478 240.81 337.078 104.15 426.018 206.8 397.478" style="fill: rgb(16, 0, 30); stroke-width: 0px;"/><polygon class="cls-97" points="262.46 206.208 278.9 254.098 182.11 343.168 217.4 272.478 262.46 206.208" style="fill: rgb(0, 122, 255); stroke-width: 0px;"/><polygon class="cls-1" points="308.64 268.568 267.84 381.548 272.84 254.568 308.64 268.568" style="stroke-width: 0px; fill: url('#gradient-1');"/><polygon class="cls-48" points="184.14 426.018 267.84 381.548 271.54 338.878 206.8 397.478 184.14 426.018" style="stroke-width: 0px; fill: url('#gradient-2');"/><path class="cls-58" d="M 170.918 443.917 C 172.618 443.917 225.936 417.868 225.936 417.868 L 265.936 381.548 L 182.236 426.018 L 170.576 443.348 C 170.576 443.348 169.158 443.804 170.848 443.804 L 170.918 443.917 Z" style="fill: rgb(16, 0, 30); stroke-width: 0px;"/><path class="cls-58" d="M 330 208.448 L 328.06 360.208 C 328.06 360.208 265.7 446.118 264.18 446.928 C 262.66 447.738 257.02 448.748 255.28 446.928 C 253.54 445.108 267.83 381.548 267.83 381.548 L 330 208.448 Z" style="fill: rgb(16, 0, 30); stroke-width: 0px;"/><path class="cls-58" d="M 384.59 307.828 C 384.59 307.828 351.27 416.978 348.2 422.548 C 345.13 428.118 336.2 426.238 333.1 422.548 C 330 418.858 328.07 360.218 328.07 360.218 L 384.59 307.838 L 384.59 307.828 Z" style="fill: rgb(16, 0, 30); stroke-width: 0px;"/><path class="cls-58" d="M 394.66 221.978 L 384.59 304.068 C 384.59 304.068 401.61 383.338 404.72 389.238 C 407.83 395.138 413.98 393.828 416.33 389.238 C 418.69 384.648 443.17 284.318 443.17 284.318 L 394.65 221.968 L 394.66 221.978 Z" style="fill: rgb(16, 0, 30); stroke-width: 0px;"/><path class="cls-58" d="M 420.21 181.848 L 436.08 288.208 C 436.08 288.208 462.95 335.088 467.05 340.068 C 471.15 345.048 478.03 345.558 478.66 338.888 C 479.29 332.208 474.79 223.558 474.79 223.558 L 420.2 181.858 L 420.21 181.848 Z" style="fill: rgb(16, 0, 30); stroke-width: 0px;"/><path class="cls-58" d="M 510.03 123.278 L 499.96 177.868 C 499.96 177.868 552.61 220.188 557.26 223.548 C 561.91 226.908 561.91 221.978 561.91 221.978 L 558.81 214.248 L 510.03 123.268 L 510.03 123.278 Z" style="fill: rgb(16, 0, 30); stroke-width: 0px;"/><polygon class="cls-49" points="-79.4 102.198 -115.63 -42.002 -95.05 -50.192 -79.4 102.198" style="stroke-width: 0px; fill: url('#gradient-3');"/><polygon class="cls-79" points="-18.63 -192.372 -55.64 -175.042 -79.4 102.198 -60.46 -49.692 -18.63 -192.372" style="fill: rgb(238, 7, 82); stroke-width: 0px;"/><polygon class="cls-47" points="-2.04 -273.242 -19.04 -190.952 -56.05 -172.672 -2.04 -273.242" style="stroke-width: 0px; fill: url('#gradient-4');"/><polygon class="cls-73" points="113.84 -225.332 16.52 -137.642 66.69 -239.052 113.84 -225.332" style="fill: rgb(255, 111, 40); stroke-width: 0px;"/><polygon class="cls-84" points="-79.4 -225.332 -115.63 -42.002 -55.64 -175.042 -79.4 -225.332" style="fill: rgb(255, 166, 0); stroke-width: 0px;"/><polygon class="cls-53" points="-60.46 65.888 -79.4 102.198 -60.46 -50.192 -33.42 -142.712 -60.46 65.888" style="stroke-width: 0px; fill: url('#gradient-5');"/><polygon class="cls-81" points="-38.89 -119.592 62.86 -231.312 52.08 -209.522 16.52 -137.642 -52.85 7.198 -38.89 -119.592" style="fill: rgb(255, 217, 153); stroke-width: 0px;"/><polygon class="cls-72" points="-18.63 -193.332 23.67 -216.722 -13.18 -147.812 -40.79 -117.502 -18.63 -193.332" style="fill: rgb(255, 123, 97); stroke-width: 0px;"/><polygon class="cls-57" points="-60.46 65.888 36.38 -155.532 16.52 -137.642 -52.85 7.198 -60.46 65.888" style="fill: rgb(112, 28, 99); stroke-width: 0px;"/><polygon class="cls-81" points="84.86 -307.832 23.67 -216.722 -18.63 -193.332 44.77 -271.282 84.86 -307.832" style="fill: rgb(255, 217, 153); stroke-width: 0px;"/><polygon class="cls-85" points="66.69 -239.052 84.86 -307.832 23.67 -216.722 66.69 -239.052" style="fill: rgb(255, 0, 83); stroke-width: 0px;"/><polygon class="cls-82" points="-13.18 -147.812 62.86 -231.312 66.69 -239.052 23.67 -216.722 -13.18 -147.812" style="fill: rgb(250, 240, 202); stroke-width: 0px;"/><polygon class="cls-81" points="158.72 -327.502 149.63 -268.052 66.69 -239.052 158.72 -327.502" style="fill: rgb(255, 217, 153); stroke-width: 0px;"/><polygon class="cls-54" points="260.12 -327.502 113.84 -225.332 66.69 -239.052 260.12 -327.502" style="stroke-width: 0px; fill: url('#linear-gradient-4-1');"/><polygon class="cls-52" points="116.14 -227.322 95.75 -194.762 36.015 -155.496 116.14 -227.322" style="stroke-width: 0px; fill: url('#gradient-6');"/><polygon class="cls-50" points="-37.96 48.848 -6.97 -28.672 -12.04 -42.222 -79.4 102.198 -35.35 62.878 -37.96 48.848" style="stroke-width: 0px; fill: url('#gradient-7');"/><polyline class="cls-82" points="36.2 -155.834 -27.86 -8.292 -35.55 40.388 -18 -29.432 100.72 -204.652" style="fill: rgb(250, 240, 202); stroke-width: 0px;"/><polygon class="cls-75" points="119.39 -225.332 206.8 -268.052 260.12 -327.502 113.84 -225.332 119.39 -225.332" style="fill: rgb(255, 106, 38); stroke-width: 0px;"/><polygon class="cls-51" points="-6.97 -28.672 73.32 -139.942 110.62 -192.372 206.8 -268.052 113.84 -225.332 -13.15 -36.512 -6.97 -28.672" style="stroke-width: 0px; fill: url('#gradient-8');"/><polygon class="cls-18" points="0.39 -20.262 -37.96 48.848 -6.97 -28.672 0.39 -20.262" style="stroke-width: 0px; fill: url('#linear-gradient-7-1');"/><polygon class="cls-15" points="141.02 -177.312 100.72 -101.662 0.39 -20.262 -6.97 -28.672 75.686 -145.555 141.02 -177.312" style="stroke-width: 0px; fill: url('#linear-gradient-7-2');"/><polygon class="cls-16" points="167.88 -172.932 123.07 -151.892 139 -177.312 195.37 -209.522 167.88 -172.932" style="stroke-width: 0px; fill: url('#linear-gradient-9-1');"/><polygon class="cls-17" points="136.52 -130.972 98.26 -109.082 123.07 -151.892 167.88 -172.932 136.52 -130.972" style="stroke-width: 0px; fill: url('#linear-gradient-9-2');"/><polygon class="cls-89" points="75.53 -145.392 110.62 -192.372 206.8 -268.052 314.62 -305.542 338.75 -307.832 216.41 -236.552 75.53 -145.392" style="fill: rgb(255, 224, 159); stroke-width: 0px;"/><polygon class="cls-85" points="188.64 -200.022 199.19 -214.922 212.946 -234.292 75.654 -145.581 188.64 -200.022" style="fill: rgb(255, 0, 83); stroke-width: 0px;"/><polygon class="cls-75" points="293.45 -264.492 199.19 -214.922 212.752 -234.308 332.82 -307.832 338.75 -307.832 293.45 -264.492" style="fill: rgb(255, 106, 38); stroke-width: 0px;"/><polygon class="cls-26" points="-3.84 14.888 62.86 -75.062 85.56 -97.552 62.86 -56.322 -3.84 14.888" style="stroke-width: 0px; fill: url('#linear-gradient-7-3');"/><polygon class="cls-22" points="102.9 -89.582 242.3 -192.372 167.88 -172.932 101.439 -88.124" style="stroke-width: 0px; fill: url('#gradient-9');"/><polygon class="cls-81" points="199.19 -214.922 167.88 -172.932 334.22 -245.312 403.16 -262.282 406.79 -265.572 361.44 -265.572 199.19 -214.922" style="fill: rgb(255, 217, 153); stroke-width: 0px;"/><polygon class="cls-86" points="242.3 -192.372 305.19 -208.112 403.16 -262.282 334.22 -245.312 166.23 -172.162 242.3 -192.372" style="fill: rgb(255, 0, 105); stroke-width: 0px;"/><polygon class="cls-82" points="232.52 -185.172 281 -160.932 250.6 -147.282 127.43 -107.672 232.52 -185.172" style="fill: rgb(250, 240, 202); stroke-width: 0px;"/><polygon class="cls-81" points="242.3 -192.372 232.52 -185.172 281 -160.932 343.63 -183.432 283.05 -202.572 242.3 -192.372" style="fill: rgb(255, 217, 153); stroke-width: 0px;"/><polygon class="cls-20" points="319.11 -212.212 418.63 -222.952 478.63 -216.062 470.72 -212.212 425.72 -206.132 343.63 -183.432 283.05 -202.572 319.11 -212.212" style="stroke-width: 0px; fill: url('#linear-gradient-4-2');"/><polygon class="cls-19" points="419.98 -185.172 343.63 -183.432 425.72 -206.132 478.63 -216.062 419.98 -185.172" style="stroke-width: 0px; fill: url('#gradient-10');"/><polygon class="cls-73" points="281 -160.932 292.549 -154.638 419.98 -185.172 343.63 -183.432 281 -160.932" style="fill: rgb(255, 111, 40); stroke-width: 0px;"/><polygon class="cls-25" points="0.39 -20.262 -37.96 48.848 -35.35 62.878 -3.84 14.888 65.18 -77.362 0.39 -20.262" style="stroke-width: 0px; fill: url('#gradient-11');"/><polygon class="cls-59" points="21.11 14.888 -35.35 62.878 -3.84 14.888 62.86 -56.322 66.69 -51.922 39.09 -0.662 21.11 14.888" style="fill: rgb(7, 24, 53); stroke-width: 0px;"/><polygon class="cls-21" points="136.52 -130.972 97.69 -83.552 66.69 -51.922 62.86 -56.322 85.56 -97.552 98.26 -109.082 136.52 -130.972" style="stroke-width: 0px; fill: url('#gradient-12');"/><polygon class="cls-79" points="41.31 -4.792 112.11 -79.262 127.43 -107.672 102.9 -89.582 66.69 -51.922 41.31 -4.792" style="fill: rgb(238, 7, 82); stroke-width: 0px;"/><polygon class="cls-28" points="250.6 -147.282 41.31 -4.792 113.643 -82.123 127.43 -107.672 250.6 -147.282" style="stroke-width: 0px; fill: url('#gradient-13');"/><polygon class="cls-24" points="281 -160.932 292.696 -154.685 249.18 -120.662 182.31 -97.552 182.31 -100.792 250.6 -147.282 281 -160.932" style="stroke-width: 0px; fill: url('#linear-gradient-9-3');"/><polygon class="cls-59" points="21.11 14.888 41.31 -4.792 182.31 -100.792 182.31 -94.522 57.73 -7.242 21.11 14.888" style="fill: rgb(7, 24, 53); stroke-width: 0px;"/><polygon class="cls-27" points="257.66 -103.692 297.38 -123.372 249.18 -120.662 182.31 -97.552 57.73 -7.242 257.66 -103.692" style="stroke-width: 0px; fill: url('#linear-gradient-15-1');"/><polygon class="cls-81" points="56.71 -0.332 21.11 14.888 57.73 -7.242 257.66 -103.692 297.38 -105.482 398.65 -81.802 321.82 -77.942 231.5 -57.572 56.71 -0.332" style="fill: rgb(255, 217, 153); stroke-width: 0px;"/><polygon class="cls-23" points="252.46 -40.022 285.81 -69.822 232.04 -59.642 56.71 -0.332 136.52 -17.132 252.46 -40.022" style="stroke-width: 0px; fill: url('#linear-gradient-8-1');"/><polygon class="cls-59" points="253.57 -41.332 235.67 -20.262 132.56 -13.522 133.36 -16.482 253.57 -41.332" style="fill: rgb(7, 24, 53); stroke-width: 0px;"/><polygon class="cls-30" points="136.52 -17.132 99.69 16.458 235.03 51.218 281 55.408 136.52 -17.132" style="stroke-width: 0px; fill: url('#gradient-14');"/><polygon class="cls-14" points="297.38 0.328 235.67 -20.262 136.52 -17.132 163.79 0.328 297.38 0.328" style="stroke-width: 0px; fill: url('#linear-gradient-2-1');"/><polygon class="cls-31" points="305.68 -14.252 235.67 -20.262 253.57 -41.332 305.68 -14.252" style="stroke-width: 0px; fill: url('#gradient-15');"/><polygon class="cls-56" points="320.71 11.318 382.74 65.888 458.83 113.318 401.28 32.428 305.68 -14.252 235.67 -20.262 320.71 11.318" style="fill: rgb(113, 82, 152); stroke-width: 0px;"/><polygon class="cls-29" points="224.74 91.208 284.09 112.368 235.03 51.218 157.462 31.325 224.74 91.208" style="stroke-width: 0px; fill: url('#gradient-16');"/><polygon class="cls-69" points="253.57 -41.332 319.16 -69.822 321.82 -77.942 285.81 -69.822 253.57 -41.332" style="fill: rgb(188, 0, 93); stroke-width: 0px;"/><polygon class="cls-69" points="446.4 -73.032 426.002 -83.273 321.82 -77.942 317.56 -67.142 446.4 -73.032" style="fill: rgb(188, 0, 93); stroke-width: 0px;"/><polygon class="cls-78" points="288.08 -152.032 249.18 -120.662 328.58 -117.972 425.52 -123.372 288.08 -152.032" style="fill: rgb(255, 201, 141); stroke-width: 0px;"/><polygon class="cls-82" points="526.2 -151.892 478.63 -166.032 403.16 -175.042 296.38 -156.792 288.08 -152.032 338.75 -140.982 526.2 -151.892" style="fill: rgb(250, 240, 202); stroke-width: 0px;"/><polygon class="cls-13" points="425.52 -123.372 526.2 -151.892 338.75 -140.982 425.52 -123.372" style="stroke-width: 0px; fill: url('#linear-gradient-17-1');"/><polygon class="cls-82" points="289.17 -119.312 257.66 -103.692 297.38 -105.482 398.65 -81.802 414.01 -82.262 333.57 -119.312 289.17 -119.312" style="fill: rgb(250, 240, 202); stroke-width: 0px;"/><polygon class="cls-85" points="425.52 -123.372 505.72 -79.942 414.01 -82.262 333.57 -119.312 425.52 -123.372" style="fill: rgb(255, 0, 83); stroke-width: 0px;"/><path class="cls-4" d="M 566.46 -79.942 L 505.72 -79.942 L 425.52 -123.372 L 441.76 -123.372 C 441.76 -123.372 522.51 -104.892 529.04 -103.272 C 535.57 -101.652 566.45 -79.942 566.45 -79.942 L 566.46 -79.942 Z" style="stroke-width: 0px; fill: url('#linear-gradient-4-3');"/><polygon class="cls-80" points="533.7 -59.642 528.68 -45.302 446.4 -73.032 426.76 -82.262 505.72 -79.942 533.7 -59.642" style="fill: rgb(255, 176, 29); stroke-width: 0px;"/><path class="cls-6" d="M 374.67 -63.782 L 594.8 95.588 C 594.8 95.588 597.48 91.638 594.8 84.288 C 592.12 76.938 508.59 -23.262 508.59 -23.262 L 374.67 -63.782 Z" style="stroke-width: 0px; fill: url('#linear-gradient-17-2');"/><polygon class="cls-7" points="528.68 -45.302 508.59 -23.262 591.45 0.328 528.68 -45.302" style="stroke-width: 0px; fill: url('#linear-gradient-20-1');"/><polygon class="cls-78" points="319.16 -69.822 253.57 -41.332 279.74 -35.082 403.98 -71.092 319.16 -69.822" style="fill: rgb(255, 201, 141); stroke-width: 0px;"/><polygon class="cls-78" points="528.68 -45.302 508.59 -23.262 508.59 -23.262 374.67 -63.782 403.98 -71.092 442.85 -74.702 528.68 -45.302" style="fill: rgb(255, 201, 141); stroke-width: 0px;"/><polygon class="cls-5" points="393.92 -17.132 374.67 -63.782 279.74 -35.082 393.92 -17.132" style="stroke-width: 0px; fill: url('#linear-gradient-27-1');"/><polygon class="cls-3" points="497.9 25.428 520.31 64.618 393.92 -17.132 374.67 -63.782 497.9 25.428" style="stroke-width: 0px; fill: url('#linear-gradient-26-1');"/><polygon class="cls-10" points="163.79 0.328 198.07 0.418 281 55.408 163.79 0.328" style="stroke-width: 0px; fill: url('#linear-gradient-27-2');"/><polygon class="cls-12" points="310.65 29.518 198.07 0.418 281 55.408 317.56 86.798 420.21 181.848 310.65 29.518" style="stroke-width: 0px; fill: url('#linear-gradient-24-1');"/><polygon class="cls-8" points="291.12 0.328 381.86 65.438 310.65 29.518 198.07 0.418 291.12 0.328" style="stroke-width: 0px; fill: url('#linear-gradient-3-1');"/><polygon class="cls-11" points="320.71 11.318 319.74 22.568 291.12 0.328 320.71 11.318" style="stroke-width: 0px; fill: url('#gradient-17');"/><polygon class="cls-59" points="382.74 65.888 358.77 52.888 319.74 22.568 320.71 11.318 382.74 65.888" style="fill: rgb(7, 24, 53); stroke-width: 0px;"/><polygon class="cls-2" points="253.57 -41.332 393.92 -17.132 440.04 57.988 253.57 -41.332" style="stroke-width: 0px; fill: url('#linear-gradient-3-2');"/><polygon class="cls-74" points="310.65 29.518 420.21 181.848 382.74 65.888 310.65 29.518" style="fill: rgb(255, 96, 41); stroke-width: 0px;"/><polygon class="cls-9" points="474.8 223.548 382.74 65.888 468.81 117.868 474.8 223.548" style="stroke-width: 0px; fill: url('#linear-gradient-17-3');"/><polygon class="cls-40" points="351.24 123.278 394.66 221.978 420.21 181.848 360.21 98.428 351.24 123.278" style="stroke-width: 0px; fill: url('#linear-gradient-1');"/><polygon class="cls-41" points="330 208.448 365.43 260.448 335.84 353.008 328.07 360.208 330 208.448" style="stroke-width: 0px; fill: url('#linear-gradient-17-4');"/><polygon class="cls-68" points="283.46 96.838 308.64 270.288 272.84 256.278 283.46 96.838" style="fill: rgb(51, 40, 116); stroke-width: 0px;"/><polygon class="cls-93" points="224.74 91.208 253.57 129.248 243.91 155.488 224.74 91.208" style="fill: rgb(0, 69, 178); stroke-width: 0px;"/><polygon class="cls-55" points="520.31 64.618 510.03 123.278 547.12 99.018 520.31 64.618" style="fill: rgb(250, 0, 97); stroke-width: 0px;"/><polygon class="cls-83" points="393.92 -17.132 440.04 57.988 510.03 123.278 520.31 64.618 393.92 -17.132" style="fill: rgb(255, 27, 78); stroke-width: 0px;"/><polygon class="cls-59" points="406.91 40.338 440.04 57.988 467.42 119.338 458.83 113.318 406.91 40.338" style="fill: rgb(7, 24, 53); stroke-width: 0px;"/><polygon class="cls-81" points="533.7 -59.642 591.45 0.328 528.68 -45.302 533.7 -59.642" style="fill: rgb(255, 217, 153); stroke-width: 0px;"/><polygon class="cls-64" points="497.9 25.428 520.31 64.618 594.8 95.588 497.9 25.428" style="fill: rgb(227, 0, 103); stroke-width: 0px;"/><path class="cls-38" d="M 547.12 99.018 L 557.6 119.338 C 557.6 119.338 583.64 154.068 582.63 158.698 C 581.62 163.328 510.02 123.268 510.02 123.268 L 547.11 99.008 L 547.12 99.018 Z" style="stroke-width: 0px; fill: url('#gradient-18');"/><polygon class="cls-78" points="440.04 57.988 467.42 119.338 510.03 123.278 440.04 57.988" style="fill: rgb(255, 201, 141); stroke-width: 0px;"/><polygon class="cls-64" points="499.96 177.858 458.83 113.318 510.03 123.278 499.96 177.858" style="fill: rgb(227, 0, 103); stroke-width: 0px;"/><polygon class="cls-59" points="243.91 155.488 272.89 255.168 281 177.858 253.57 129.248 243.91 155.488" style="fill: rgb(7, 24, 53); stroke-width: 0px;"/><polygon class="cls-39" points="284.09 109.628 330 208.448 308.64 270.288 284.09 109.628" style="stroke-width: 0px; fill: url('#linear-gradient-17-5');"/><polygon class="cls-34" points="347.25 153.038 365.43 260.448 385.15 306.82 394.66 221.978 345.145 142.39" style="stroke-width: 0px; fill: url('#linear-gradient-2-2');"/><polygon class="cls-32" points="307.05 82.808 284.09 112.368 381.86 203.368 307.05 82.808" style="stroke-width: 0px; fill: url('#linear-gradient-17-6');"/><polygon class="cls-33" points="235.03 51.218 284.09 112.368 307.05 82.808 235.03 51.218" style="stroke-width: 0px; fill: url('#gradient-19');"/><polygon class="cls-59" points="394.903 223.471 307.237 83.618 353.113 104.259 394.866 223.153" style="fill: rgb(7, 24, 53); stroke-width: 0px;"/><polygon class="cls-55" points="420.21 181.848 394.66 221.978 436.08 288.198 420.21 181.848" style="fill: rgb(250, 0, 97); stroke-width: 0px;"/><path class="cls-37" style="stroke-width: 0px; fill: url('#linear-gradient-55');" d="M 365.43 260.448 C 365.43 260.448 385.453 307.626 385.383 307.205 L 335.84 353.008 L 365.43 260.448 Z"/><polygon class="cls-35" points="347.25 153.038 330 208.448 282.497 111.221 347.25 153.038" style="stroke-width: 0px; fill: url('#linear-gradient-46-1');"/><polygon class="cls-72" points="365.43 260.448 347.25 153.038 330 208.448 365.43 260.448" style="fill: rgb(255, 123, 97); stroke-width: 0px;"/><polygon class="cls-83" points="382.74 65.888 474.8 223.548 420.21 181.848 382.74 65.888" style="fill: rgb(255, 27, 78); stroke-width: 0px;"/><polygon class="cls-36" points="458.83 113.318 474.837 223.548 499.939 177.792 458.83 113.318" style="stroke-width: 0px; fill: url('#linear-gradient-46-2');"/><path class="cls-45" d="M 523.77 284.328 C 527.81 288.748 528.57 284.328 528.57 284.328 L 500.039 177.545 L 474.79 223.538 C 474.79 223.538 519.72 279.898 523.76 284.318 L 523.77 284.328 Z" style="stroke-width: 0px; fill: url('#linear-gradient-42-1');"/><polygon class="cls-56" points="224.74 91.208 281 177.858 284.09 112.368 224.74 91.208" style="fill: rgb(113, 82, 152); stroke-width: 0px;"/><polygon class="cls-43" points="284.09 53.348 356.33 105.678 235.03 51.218 284.09 53.348" style="stroke-width: 0px; fill: url('#linear-gradient-3-3');"/><polygon class="cls-60" points="224.74 91.208 209.13 196.238 125.89 99.788 224.74 91.208" style="fill: rgb(10, 24, 37); stroke-width: 0px;"/><polygon class="cls-44" points="-79.4 102.198 -95.05 -50.192 -74.41 -113.992 -63.4 -26.522 -79.4 102.198" style="stroke-width: 0px; fill: url('#linear-gradient-8-2');"/><polygon class="cls-76" points="-115.63 -42.002 -94.79 -47.682 -55.64 -175.042 -115.63 -42.002" style="fill: rgb(255, 119, 0); stroke-width: 0px;"/><polygon class="cls-42" points="21.11 14.888 99.69 16.458 136.52 -17.132 56.71 -0.332 21.11 14.888" style="stroke-width: 0px; fill: url('#linear-gradient-18-1');"/><polygon class="cls-77" points="-19.04 -190.952 14.509 -234.004 -2.04 -273.242 -19.04 -190.952" style="fill: rgb(255, 135, 124); stroke-width: 0px;"/><polygon class="cls-84" points="5 -158.012 -3.84 -95.122 56.9 -219.252 5 -158.012" style="fill: rgb(255, 166, 0); stroke-width: 0px;"/><polygon class="cls-66" points="23.67 68.278 32.09 107.918 -35.35 107.918 23.67 68.278" style="fill: rgb(132, 183, 255); stroke-width: 0px;"/><circle class="cls-96" cx="5.24" cy="75.308" r="18.43" style="fill: rgb(0, 28, 74); stroke-width: 0px;"/><polygon class="cls-90" points="272.84 254.568 182.11 343.168 104.15 426.018 240.3 339.098 272.33 256.588 272.84 254.568" style="fill: rgb(0, 49, 116); stroke-width: 0px;"/><polygon class="cls-68" points="204.92 399.148 281 346.438 272.84 254.568 272.39 256.238 204.92 399.148" style="fill: rgb(51, 40, 116); stroke-width: 0px;"/><polygon class="cls-72" points="321.82 -77.942 257.66 -103.692 297.38 -105.482 398.65 -81.802 321.82 -77.942" style="fill: rgb(255, 123, 97); stroke-width: 0px;"/><polygon class="cls-84" points="232.04 -59.642 257.66 -103.692 321.82 -77.942 232.04 -59.642" style="fill: rgb(255, 166, 0); stroke-width: 0px;"/><polygon class="cls-46" points="135.43 -28.672 158.72 -55.952 257.66 -103.692 232.04 -59.642 135.43 -28.672" style="stroke-width: 0px; fill: url('#gradient-20');"/><circle class="cls-88" cx="3.28" cy="65.888" r="3.72" style="fill: rgb(252, 252, 252); stroke-width: 0px;"/></g></svg>