<svg style="fill: var(--md-code-fg-color);" viewBox="0 0 24 24" height="24px" width="24px" ><path fill-rule="evenodd" clip-rule="evenodd" d="M9.13 3.716a0.331 0.331 0 0 0 -0.016 0.103v3.637a0.331 0.331 0 0 0 0.015 0.103 0.083 0.083 0 0 0 0.015 0.026 0.083 0.083 0 0 0 0.026 0.015 0.331 0.331 0 0 0 0.103 0.015h5.455a0.331 0.331 0 0 0 0.103 -0.015 0.083 0.083 0 0 0 0.026 -0.015 0.083 0.083 0 0 0 0.015 -0.026 0.331 0.331 0 0 0 0.015 -0.103V3.819a0.331 0.331 0 0 0 -0.015 -0.103 0.083 0.083 0 0 0 -0.015 -0.026 0.083 0.083 0 0 0 -0.026 -0.014 0.331 0.331 0 0 0 -0.103 -0.016h-5.454a0.331 0.331 0 0 0 -0.103 0.016 0.083 0.083 0 0 0 -0.026 0.014 0.083 0.083 0 0 0 -0.015 0.026zM8.083 2.63c0.318 -0.319 0.746 -0.47 1.19 -0.47h5.454c0.443 0 0.87 0.151 1.19 0.47 0.318 0.319 0.47 0.746 0.47 1.19v3.636c0 0.443 -0.152 0.87 -0.47 1.19 -0.32 0.318 -0.747 0.47 -1.19 0.47h-1.977v2.136h3.795a2.574 2.574 0 0 1 2.569 2.568v1.068h1.977c0.444 0 0.871 0.151 1.19 0.47s0.47 0.746 0.47 1.19v3.636c0 0.443 -0.151 0.87 -0.47 1.19 -0.319 0.318 -0.747 0.47 -1.19 0.47h-5.455a1.655 1.655 0 0 1 -1.189 -0.47 1.655 1.655 0 0 1 -0.47 -1.19v-3.637c0 -0.443 0.151 -0.87 0.47 -1.19a1.655 1.655 0 0 1 1.19 -0.469h1.977v-1.067c0 -0.586 -0.483 -1.068 -1.069 -1.068H7.455c-0.586 0 -1.068 0.482 -1.068 1.068v1.068h1.977c0.443 0 0.87 0.151 1.19 0.47 0.318 0.319 0.47 0.746 0.47 1.19v3.636c0 0.443 -0.152 0.87 -0.47 1.19 -0.32 0.318 -0.747 0.47 -1.19 0.47H2.91c-0.443 0 -0.87 -0.152 -1.19 -0.47a1.655 1.655 0 0 1 -0.469 -1.19v-3.637c0 -0.443 0.151 -0.87 0.47 -1.19a1.655 1.655 0 0 1 1.19 -0.469h1.977v-1.067a2.574 2.574 0 0 1 2.568 -2.568h3.796v-2.137h-1.979c-0.443 0 -0.87 -0.15 -1.19 -0.47A1.655 1.655 0 0 1 7.614 7.455V3.82c0 -0.443 0.151 -0.87 0.47 -1.19zM2.765 16.444a0.331 0.331 0 0 0 -0.015 0.103v3.637a0.331 0.331 0 0 0 0.015 0.103 0.083 0.083 0 0 0 0.015 0.026q0.003 0.004 0.026 0.015c0.017 0.006 0.05 0.015 0.103 0.015h5.455a0.331 0.331 0 0 0 0.103 -0.015 0.083 0.083 0 0 0 0.026 -0.015 0.083 0.083 0 0 0 0.015 -0.026 0.331 0.331 0 0 0 0.015 -0.103v-3.637a0.331 0.331 0 0 0 -0.015 -0.103 0.083 0.083 0 0 0 -0.015 -0.025 0.083 0.083 0 0 0 -0.026 -0.015 0.331 0.331 0 0 0 -0.103 -0.016H2.91a0.331 0.331 0 0 0 -0.103 0.015 0.083 0.083 0 0 0 -0.026 0.016 0.083 0.083 0 0 0 -0.015 0.025zm12.729 0a0.331 0.331 0 0 0 -0.016 0.103v3.637a0.331 0.331 0 0 0 0.016 0.103 0.083 0.083 0 0 0 0.015 0.026 0.083 0.083 0 0 0 0.025 0.015c0.018 0.006 0.05 0.015 0.103 0.015h5.455a0.331 0.331 0 0 0 0.103 -0.015 0.083 0.083 0 0 0 0.026 -0.015 0.083 0.083 0 0 0 0.015 -0.026 0.331 0.331 0 0 0 0.015 -0.103v-3.637a0.331 0.331 0 0 0 -0.015 -0.103 0.083 0.083 0 0 0 -0.015 -0.025 0.083 0.083 0 0 0 -0.026 -0.015 0.331 0.331 0 0 0 -0.103 -0.016h-5.455a0.331 0.331 0 0 0 -0.103 0.015 0.083 0.083 0 0 0 -0.025 0.016 0.083 0.083 0 0 0 -0.015 0.025"/></svg>