<svg role="graphics-symbol" aria-labelledby="title" data-component-id="nokia-react-icons-magic" fill="" height="24px" width="24px" viewBox="0 0 24 24" style="fill: rgb(255, 172, 10);"><path d="M22.12 8.744h-1.5v-1.5c0-.41-.34-.75-.75-.75s-.75.34-.75.75v1.5h-1.5c-.41 0-.75.34-.75.75s.34.75.75.75h1.5v1.5c0 .41.34.75.75.75s.75-.34.75-.75v-1.5h1.5c.41 0 .75-.34.75-.75s-.34-.75-.75-.75zM15.61 14.784l-1.27-.42a7.286 7.286 0 0 1-4.59-4.58l-.42-1.27a.741.741 0 0 0-.71-.51c-.32 0-.61.21-.71.51l-.42 1.27a7.234 7.234 0 0 1-4.59 4.59l-1.26.42c-.31.1-.51.39-.51.71 0 .32.21.61.51.71l1.26.42c2.17.72 3.86 2.42 4.59 4.59l.42 1.27c.1.31.39.51.71.51.32 0 .61-.21.71-.51l.42-1.27a7.241 7.241 0 0 1 4.59-4.58l1.27-.42c.31-.1.51-.39.51-.71 0-.32-.21-.61-.51-.71v-.02zm-6.99 5.21a8.746 8.746 0 0 0-4.49-4.49 8.746 8.746 0 0 0 4.49-4.49 8.729 8.729 0 0 0 4.5 4.49 8.765 8.765 0 0 0-4.5 4.49zM16.12 3.994h-2.25v-2.25c0-.41-.34-.75-.75-.75s-.75.34-.75.75v2.25h-2.25c-.41 0-.75.34-.75.75s.34.75.75.75h2.25v2.25c0 .41.34.75.75.75s.75-.34.75-.75v-2.25h2.25c.41 0 .75-.34.75-.75s-.34-.75-.75-.75z"></path></svg>