<?xml version="1.0" encoding="utf-8"?>
<svg xmlns="http://www.w3.org/2000/svg" viewBox="0 0 576 129.7932" width="576px" height="129.793px" preserveAspectRatio="none"><defs><style type="text/css">
	.st0{fill:#FFFFFF;}
</style></defs><g id="object-0"><g id="Logo"><path id="Wordmark" class="st0" d="M398.1639404,3.9472001l-0.000061,121.8988037h19.0888977L417.2527466,3.9472001H398.1639404z M194.2207794,1.8649011c-37.1884613-0.0001605-66.0428162,25.9216156-66.0428162,63.0316963 c0,38.78125,28.8543549,63.0323334,66.0428162,63.0317001c37.1885376-0.0006332,66.1020355-24.2504501,66.0428009-63.0317001 C260.2098694,29.7362213,231.409317,1.8650616,194.2207794,1.8649011z M241.2088776,64.8965988 c0,27.4725647-21.0372772,45.6786041-46.9880524,45.6786041s-46.9880676-18.2060394-46.9880676-45.6786041 c0-26.974247,21.0372772-45.6786003,46.9880676-45.6786003S241.2088776,37.9223518,241.2088776,64.8965988z M0,0.000011 v125.845993h19.4820881l0.0000095-83.1665039l101.2399597,87.1137009v-26.0914993L0,0.000011z M274.6208801,64.8965759 l70.8470154,60.9494705h28.4053955l-70.9522095-60.9494705l70.952179-60.9494209H345.467865L274.6208801,64.8965759z M576,125.8460007h-20.9987183l-15.3583984-26.9943161h-69.5536499l-15.3582153,26.9943161h-20.9987488l25.4322205-44.9925461 h70.4919434l-35.1487427-62.5270119L504.8661804,0l-0.0000305,0.0001221L504.8662109,0L576,125.8460007z"/></g></g></svg>